<!DOCTYPE svg PUBLIC "-//W3C//DTD SVG 1.1//EN" "http://www.w3.org/Graphics/SVG/1.1/DTD/svg11.dtd">
<!-- Uploaded to: SVG Repo, www.svgrepo.com, Transformed by: SVG Repo Mixer Tools -->
<svg fill="#25C0D8" version="1.1" id="Capa_1" xmlns="http://www.w3.org/2000/svg" xmlns:xlink="http://www.w3.org/1999/xlink" width="800px" height="800px" viewBox="0 0 45.928 45.928" xml:space="preserve">
<g id="SVGRepo_bgCarrier" stroke-width="0"/>
<g id="SVGRepo_tracerCarrier" stroke-linecap="round" stroke-linejoin="round"/>
<g id="SVGRepo_iconCarrier"> <g> <g> <path d="M5.211,23.64c-0.155-0.198-0.21-0.457-0.149-0.7c0.477-1.903,2.171-3.585,4.624-4.788 c-0.466-0.121-0.915-0.327-1.341-0.618c-0.263-0.181-0.499-0.387-0.705-0.617c-3.504,1.737-5.169,4.176-5.715,7.13 C1.76,24.939,0.036,34.135,0.036,34.135c-0.113,0.586,0.042,1.186,0.422,1.645C0.838,36.24,1.404,36.501,2,36.501h2.626 c0.015-0.327,0.056-0.688,0.132-0.994c0.938-3.735,3.695-4.455,5.563-4.453c1.586,0.003,3.012,0.652,4.052,1.701v-8.8H5.856 C5.604,23.954,5.367,23.838,5.211,23.64z M3.999,30.244c0,1.104-0.916,2.005-2.021,2.005H1.422l1.111-5.789l0.008,0.001 c0.836,0.238,1.457,1.004,1.457,1.917L3.999,30.244L3.999,30.244z"/> <path d="M45.336,31.074c-0.936-2.612-2.904-4.729-5.417-5.861c-1.226-0.553-2.94-0.863-4.396-0.889c0-0.002,0-0.006,0-0.01 c0-2.721-2.03-5.445-5.285-7.175c-0.156,0.14-0.324,0.271-0.504,0.393c-0.529,0.362-1.156,0.601-1.81,0.696 c2.368,1.196,4,2.847,4.466,4.708c0.062,0.243,0.006,0.504-0.148,0.701c-0.155,0.198-0.393,0.314-0.645,0.314h-7.652v12.546h3.664 c0.015-0.327,0.06-0.688,0.132-0.994c0.571-2.526,2.849-4.451,5.563-4.451c2.713,0,4.992,1.923,5.563,4.451 c0.073,0.308,0.118,0.667,0.133,0.994h4.927c1.104,0,2-0.894,2-1.998C45.93,33.298,45.719,32.148,45.336,31.074z M42.702,31.061 c-1.944,0-3.504-1.563-3.504-3.509v-1.563c2.288,0.937,4.13,2.783,5.063,5.072H42.702z"/> <path d="M10.322,33.053c-2.045,0-3.703,1.657-3.703,3.703c0,2.044,1.658,3.703,3.703,3.703c2.046,0,3.704-1.659,3.704-3.703 C14.026,34.71,12.368,33.053,10.322,33.053z M10.322,38.123c-0.755,0-1.367-0.613-1.367-1.367c0-0.755,0.612-1.367,1.367-1.367 c0.756,0,1.368,0.612,1.368,1.367C11.69,37.51,11.078,38.123,10.322,38.123z"/> <path d="M33.305,33.053c-2.045,0-3.703,1.657-3.703,3.703c0,2.044,1.658,3.703,3.703,3.703c2.047,0,3.704-1.659,3.704-3.703 C37.009,34.71,35.352,33.053,33.305,33.053z M33.305,38.123c-0.755,0-1.367-0.613-1.367-1.367c0-0.755,0.612-1.367,1.367-1.367 c0.756,0,1.368,0.612,1.368,1.367C34.673,37.51,34.061,38.123,33.305,38.123z"/> <path d="M17.415,16.611c-0.381,0-0.751-0.089-1.049-0.279v19.779c0,1.104,0.909,1.994,2.013,1.994h1.567 c1.104,0,2.009-0.89,2.009-1.994V16.332c-0.297,0.19-0.664,0.279-1.044,0.279H17.415z"/> <path d="M26.438,16.125c0.265,0.104,0.554,0.154,0.842,0.154c0.471,0,0.939-0.135,1.322-0.397 c0.619-0.423,1.112-1.124,1.112-1.876V7.741c0-0.751-0.485-1.452-1.104-1.875c-0.383-0.263-0.875-0.397-1.361-0.397 c-0.299,0-0.594,0.051-0.859,0.154L22.22,7.974c0.386,0.354,0.626,0.864,0.626,1.429v4.712L26.438,16.125z"/> <path d="M10.705,5.469c-0.433,0-0.87,0.135-1.253,0.397C8.833,6.289,8.577,6.99,8.577,7.741v6.265 c0,0.752,0.264,1.453,0.883,1.876c0.383,0.263,0.792,0.397,1.208,0.397c0.256,0,0.521-0.051,0.786-0.154l4.02-2.126V9.402 c0-0.532,0.215-1.016,0.563-1.366l-4.532-2.413C11.24,5.52,10.971,5.469,10.705,5.469z"/> <path d="M17.415,15.63h3.496c0.52,0,0.925-0.418,0.925-0.938v-5.29c0-0.521-0.405-0.937-0.925-0.937h-3.496 c-0.52,0-0.93,0.416-0.93,0.937v5.29C16.485,15.212,16.895,15.63,17.415,15.63z"/> </g> </g> </g>
</svg>