<?xml version="1.0" standalone="no"?>
<!DOCTYPE svg PUBLIC "-//W3C//DTD SVG 20010904//EN"
 "http://www.w3.org/TR/2001/REC-SVG-20010904/DTD/svg10.dtd">
<svg version="1.0" xmlns="http://www.w3.org/2000/svg"
 width="1280.000000pt" height="905.000000pt" viewBox="0 0 1280.000000 905.000000"
 preserveAspectRatio="xMidYMid meet">
<metadata>
Created by potrace 1.15, written by Peter Selinger 2001-2017
</metadata>
<g transform="translate(0.000000,905.000000) scale(0.100000,-0.100000)"
fill="#25c0d8" stroke="none">
<path d="M5845 8023 c-33 -8 -73 -53 -80 -89 -9 -48 15 -92 88 -160 61 -57
952 -933 1532 -1504 160 -157 387 -381 505 -496 118 -116 523 -513 898 -882
548 -539 691 -674 720 -682 53 -14 508 -12 551 3 68 24 94 104 55 165 -11 16
-271 274 -579 573 -308 300 -1093 1065 -1745 1700 l-1186 1154 -344 107 c-366
114 -384 119 -415 111z"/>
<path d="M5695 7819 c-20 -5 -103 -78 -226 -196 -107 -104 -444 -429 -749
-723 -305 -294 -987 -951 -1515 -1459 -528 -509 -991 -955 -1029 -991 -38 -36
-75 -80 -83 -98 -18 -43 -8 -94 24 -124 24 -23 26 -23 319 -26 225 -2 299 0
318 10 13 7 462 443 997 968 536 526 1269 1244 1630 1598 361 353 661 653 667
667 16 35 15 70 -2 103 -20 38 -260 272 -279 272 -8 0 -21 2 -29 4 -7 2 -27 0
-43 -5z"/>
<path d="M3735 7453 c-26 -7 -65 -42 -75 -69 -5 -12 -11 -226 -14 -475 -4
-250 -9 -507 -12 -571 -6 -134 4 -187 43 -217 32 -26 99 -28 133 -4 61 42 562
507 571 530 14 37 12 716 -3 747 -26 59 -37 61 -343 63 -154 1 -289 -1 -300
-4z"/>
<path d="M6850 6095 c-235 -53 -419 -195 -525 -406 -141 -279 -90 -623 127
-854 57 -61 182 -155 207 -155 30 0 5 -18 -40 -29 -72 -19 -194 -82 -256 -133
-139 -116 -235 -289 -288 -526 l-24 -104 74 -151 c124 -254 216 -510 293 -812
86 -336 134 -635 152 -938 11 -198 8 -227 -26 -227 l-24 0 0 -450 0 -450 -355
0 -355 0 0 490 0 490 345 0 346 0 -6 93 c-30 456 -106 857 -241 1270 -144 438
-310 752 -500 945 l-91 92 45 20 c24 11 47 20 49 20 3 0 36 20 74 45 143 96
261 263 306 435 23 89 23 272 -1 360 -89 330 -376 551 -716 551 -375 0 -679
-268 -730 -642 -42 -306 126 -617 406 -751 l80 -39 -86 -87 c-185 -188 -355
-505 -495 -925 -135 -404 -227 -872 -243 -1240 l-7 -147 343 0 342 0 0 -490 0
-490 -370 0 -370 0 0 304 c0 267 2 305 16 317 24 20 107 145 143 217 l31 62
-106 0 -107 0 6 193 c11 357 96 830 218 1215 l30 93 -20 33 c-50 81 -173 170
-284 205 l-37 13 57 37 c75 48 153 136 193 217 106 215 66 457 -105 630 -191
194 -487 219 -710 59 -147 -105 -225 -259 -225 -445 0 -191 78 -342 231 -450
41 -28 66 -51 58 -54 -109 -32 -205 -90 -267 -162 -83 -95 -146 -257 -171
-439 -14 -97 -14 -432 -1 -550 15 -130 55 -316 90 -426 42 -129 126 -298 194
-392 l56 -78 0 -300 0 -300 -541 3 c-522 3 -541 4 -555 22 -11 15 -14 60 -14
195 0 97 -4 182 -8 189 -7 9 -59 12 -228 10 l-219 -3 -3 -420 c-2 -386 -1
-421 15 -433 13 -9 882 -12 4262 -12 2657 0 4252 4 4261 10 13 8 15 66 18 402
2 216 0 408 -3 426 l-6 32 -219 0 c-164 0 -221 -3 -227 -12 -4 -7 -10 -97 -13
-200 -3 -102 -9 -190 -13 -195 -5 -4 -351 -8 -770 -8 l-762 0 -3 193 -2 192
220 0 220 0 0 63 c0 98 -28 319 -61 471 -90 429 -241 765 -417 928 l-60 55 48
23 c67 31 145 112 183 190 30 60 32 72 32 170 0 99 -2 109 -33 173 -124 252
-439 311 -643 120 -131 -123 -165 -304 -87 -469 30 -65 108 -147 172 -180 l55
-28 -58 -52 c-220 -200 -421 -744 -470 -1274 -6 -63 -11 -132 -11 -152 l0 -38
220 0 220 0 0 -195 0 -195 -295 0 -295 0 0 494 0 494 69 92 c157 209 277 490
345 810 l23 105 -33 60 c-99 180 -82 369 47 542 35 47 39 58 39 112 0 87 -18
252 -40 371 -70 375 -249 614 -527 702 -40 13 -73 25 -73 28 0 3 17 14 37 25
93 50 200 153 266 257 126 197 151 462 64 678 -42 103 -88 171 -177 260 -93
94 -186 149 -315 190 -91 29 -271 36 -365 15z"/>
</g>
</svg>
